<svg xmlns="http://www.w3.org/2000/svg" version="1.1" xmlns:xlink="http://www.w3.org/1999/xlink" xmlns:svgjs="http://svgjs.dev/svgjs" width="1500" height="1687" viewBox="0 0 1500 1687"><g transform="matrix(1,0,0,1,0.00011015625000254659,0)"><svg viewBox="0 0 320 360" data-background-color="#00ffef" preserveAspectRatio="xMidYMid meet" height="1687" width="1500" xmlns="http://www.w3.org/2000/svg" xmlns:xlink="http://www.w3.org/1999/xlink"><g id="tight-bounds" transform="matrix(1,0,0,1,0.000023499999997511622,0)"><svg viewBox="0 0 320 360" height="360" width="320"><g><svg></svg></g><g><svg viewBox="0 0 320 360" height="360" width="320"><g><path transform="translate(-74.99272,-51.79039) scale(4.65793,4.65793)" d="M20.6 59.9l0.8 1-0.4-1.3c-0.1-0.6-0.8 0.1-0.4 0.3M21.5 59.3c0.3 0.5 0.6 1 0.6 1.5 0 0.7 0.6 1 1.1 1.2-0.7-0.8-1.1-3-1.7-2.7M59.9 16.9c1.7 0 3.3-0.2 5.1 0.2 4.4 1.1 8.1 3.3 10.6 6.4l7 11.2c0.3 2.8 0.9 5.9 0.8 9.3 0.7 0 0.6-1 1.4-1.2-0.8 2-1.2 4.5-1.4 7.4-0.5-1.6 0-4 0.1-5.3-0.7 1.1-1.1 0.3-1.1-0.2 0.1-0.8-0.3-0.7-0.6-1-1.1-1-1.8-2.1-2.6-3.8 0.5-1.3 0.6-3.2-1-4.2-0.5-0.3-1.1-0.8-1.4-1.6-0.4-1.1-1.1-2.4-0.9-4.1 0.1-0.5-1.5 1.1-2.4 0.4-3.9-2.7-7.8-5.8-12.5-8.4-2.5 0-4.3-0.9-5.2-2-0.8-1-0.2-2.3 1-2.4 0.7 0 1.5-0.2 2.1 0.2 0.1-0.4 0.5-0.9 1-0.9M50 14.6l0.2 0.1c1 0.2 1.5 1.6 2.6 1.1 0 0.7 0.1 1.4-0.1 1.9-0.3 0.8-1.2 0.8-1.9 0.8-6.7-0.4-10.6 2.4-14.7 4.8-1.1 0.7-2.3 1.2-3.2 2.1-4.3 4-9 7.7-10.1 15.1l-0.9 8.2c-0.1 0.9-1.1 1.8-0.9 2.9l0.7 4.9c-0.7-0.7-1.1 0.2-0.9 0.6 0.1 0.3 0.5 1.3 1.1 0.4 0.8 1.5 1.6 4.4 2.7 5.7 3.4 4 7.8 7.6 11.4 11.2 0.9-0.2 1.6-0.2 1.8-0.8 0.3 0.6-0.3 1.2-0.8 1.3 1.6 1 3.4 1.9 5.8 2.1 3.1 0.2 6 0.7 8.7 1.4 1.4-0.4 2.8-0.6 4.3-0.7 0.5 0 0.8-0.8 1.4-1l0.1-1c0.6 0.9 0.5-0.3 0.1-0.9 0.7 0.6 0.9 1.1 1.2 1.5 0-0.3 0.8-1.4 0.8-0.1l0.2-1.3c0.3-0.2 0.4 1.1 0.7 0.2 0.3-0.9 0.9-0.2 1.5-0.5-0.2 0.4-0.1 1.2 0.6 0.7l0.8-0.7c0.5 1.2 1.3 0.7 1.7 0.5 4.4-2.8 8.8-6.1 13-9.4l-0.1 1.3 0.5-1.6c0.5 0.5 0.9 0.1 1.1-0.2 0.6-1 1.4-2 2.7-2.9-1.6 4.3-3.5 7.7-5.9 10.5l-1 1.2c0 0.7-0.2 1.6-1 1.7-0.4 0.1-1.2-0.2-1.8 0.4-0.3 0.4 0.7 1.2-0.1 0.6-0.7-0.5-1.4 0-2.2 0.2-0.6 0.2 0.4 0.8 0.6 1.2 0.2 0.4 0.4 0.8 0.3 1.3l-1.1-1.2c-1.3 0.7-2.1 2-3.2 3-0.5 0.4-0.3 1.1-0.3 1.7-0.7 0-1.5-0.2-1.9 0.2-0.3 0.4-0.2 1-0.2 1.6-1-0.1-1.1-1.6-2-1.3-0.9 0.2-1.9 0.3-2.7 0.8 0.6 1.2-1 0.5-0.8 0.7-1.5-0.9-2.8-1.6-4.4-1-3.4-1.1-7.6-0.6-10.7-0.2 0-0.5 0.1-1-0.1-1.1-0.2 0.5-0.8 0.3-0.7 0.3-1.9-1.3-3.8-2.1-5.8-3.2-1.8 0.2-3.5-0.7-4-1.2-1.4-1.3-3-0.6-4.3-0.9-2.8-0.7-3.8-3.6-4.1-5.6-0.2-1-1-1.4-1.3-1.3-1.3-4.2-3.3-8-4.9-11.9-0.4-1-0.3-2-0.3-3.1 0.5 0.2 1 0.1 0.9-0.6-0.5-3.3-1.7-5.8-3-8.2 0.7-3.4 0.8-7.4 2.4-10.4 1.4-2.7 4-4.1 5.8-6.4 0.6-0.8 0.6-1.9 1.2-2.6 2-2 4-4.1 6.2-5.9 1-0.8 2.2 0 3.7-0.3 0.5-1.8 2.5-3.4 4.4-2.9 0.8 0.2 2.4-1.9 2.9-2.1 0.8-0.3 0.4 0.8 0.4 1.5 1.9-1.5 4.5-2.3 6.9-3.2" fill="#010c80" fill-rule="nonzero" stroke="none" stroke-width="1" stroke-linecap="butt" stroke-linejoin="miter" stroke-miterlimit="10" stroke-dasharray="" stroke-dashoffset="0" font-family="none" font-weight="none" font-size="none" text-anchor="none" style="mix-blend-mode: normal" data-fill-palette-color="tertiary"></path></g><g transform="matrix(1,0,0,1,90.1410122080977,90)"><svg viewBox="0 0 139.7179755838046 180" height="180" width="139.7179755838046"><g><svg viewBox="0 0 139.7179755838046 180" height="180" width="139.7179755838046"><g><svg viewBox="0 0 192 247.35543050629502" height="180" width="139.7179755838046"><g transform="matrix(1,0,0,1,0,115.62774518103025)"><svg viewBox="0 0 192 131.72768532526476" height="131.72768532526476" width="192"><g id="textblocktransform"><svg viewBox="0 0 192 131.72768532526476" height="131.72768532526476" width="192" id="textblock"><g><svg viewBox="0 0 192 131.72768532526476" height="131.72768532526476" width="192"><g transform="matrix(1,0,0,1,0,0)"><svg width="192" viewBox="2.56 -23.41 32.28 22.14" height="131.72768532526476" data-palette-color="#010c80"><path d="M18.41-13.84L18.41-13.84Q18.38-13.84 16.46-9.4 14.53-4.96 13.79-3.74L13.79-3.74Q12.35-1.34 10.86-1.34L10.86-1.34Q10.01-1.34 9.02-2.08 8.03-2.81 7.48-4.21 6.93-5.62 5.75-9.79 4.57-13.96 3.56-16.96 2.56-19.95 2.56-21.17L2.56-21.17Q2.56-23.39 4.2-23.39L4.2-23.39Q6.45-23.39 7.4-21.46L7.4-21.46Q7.42-21.41 9.25-14.49 11.08-7.57 12.23-7.57L12.23-7.57Q13.13-7.57 14.72-13.77L14.72-13.77Q15.19-15.55 15.53-18.37 15.87-21.19 15.99-21.48L15.99-21.48Q16.72-23.27 18.95-23.27 21.17-23.27 22.07-21.04L22.07-21.04Q22.44-20.14 22.73-18.09 23.02-16.04 23.73-13.38L23.73-13.38Q25.24-7.64 26.1-7.64L26.1-7.64Q27.08-7.64 28.88-13.87L28.88-13.87Q29.44-15.77 30.04-18.48 30.64-21.19 30.93-21.85L30.93-21.85Q31.64-23.41 33.24-23.41 34.84-23.41 34.84-21.34L34.84-21.34Q34.84-20.56 33.95-17.69 33.06-14.82 31.62-9.89 30.18-4.96 29.66-3.86 29.15-2.76 28.2-2.01 27.25-1.27 26.44-1.27L26.44-1.27Q25-1.27 23.99-2.78 22.97-4.3 20.84-9.07 18.7-13.84 18.41-13.84Z" opacity="1" transform="matrix(1,0,0,1,0,0)" fill="#010c80" class="wordmark-text-0" data-fill-palette-color="primary" id="text-0"></path></svg></g></svg></g></svg></g></svg></g><g transform="matrix(1,0,0,1,36.672,0)"><svg viewBox="0 0 118.656 96.40551442762631" height="96.40551442762631" width="118.656"><g><svg xmlns="http://www.w3.org/2000/svg" viewBox="5.117 13.533 89.76600663748023 72.93299999999999" x="0" y="0" height="96.40551442762631" width="118.656" class="icon-icon-0" data-fill-palette-color="accent" id="icon-0"><g fill="#0023ff" data-fill-palette-color="accent"><path d="M50.755 68.381V45.336a0.1 0.1 0 0 0-0.1-0.1h-1.4a0.1 0.1 0 0 0-0.1 0.1V68.381H44.032a0.1 0.1 0 0 0-0.1 0.1v1.4a0.1 0.1 0 0 0 0.1 0.1H55.968a0.1 0.1 0 0 0 0.1-0.1v-1.4a0.1 0.1 0 0 0-0.1-0.1Z" fill="#0023ff" data-fill-palette-color="accent"></path><rect x="39.947" y="39.694" width="20.016" height="1.601" rx="0.245" ry="0.245" fill="#0023ff" data-fill-palette-color="accent"></rect><path d="M66.185 13.533H33.724a1.207 1.207 0 0 0-1.207 1.207V34.123a1.207 1.207 0 0 0 1.207 1.207H48.551v3.423h2.807V35.33H66.185a1.207 1.207 0 0 0 1.207-1.207V14.74A1.207 1.207 0 0 0 66.185 13.533Zm-0.45 20.14H34.174V15.19H65.736Z" fill="#0023ff" data-fill-palette-color="accent"></path><rect x="12.546" y="84.865" width="20.016" height="1.601" rx="0.245" ry="0.245" fill="#0023ff" data-fill-palette-color="accent"></rect><path d="M38.785 58.7H6.324a1.207 1.207 0 0 0-1.207 1.207V79.295A1.207 1.207 0 0 0 6.324 80.5H21.151v3.423h2.807V80.5H38.785a1.207 1.207 0 0 0 1.207-1.207V59.911A1.207 1.207 0 0 0 38.785 58.7Zm-0.45 20.14H6.774V60.362H38.335Z" fill="#0023ff" data-fill-palette-color="accent"></path><rect x="67.437" y="84.865" width="20.016" height="1.601" rx="0.245" ry="0.245" fill="#0023ff" data-fill-palette-color="accent"></rect><path d="M93.676 58.7H61.215a1.207 1.207 0 0 0-1.207 1.207V79.295A1.207 1.207 0 0 0 61.215 80.5H76.042v3.423h2.807V80.5H93.676a1.207 1.207 0 0 0 1.207-1.207V59.911A1.207 1.207 0 0 0 93.676 58.7Zm-0.45 20.14H61.665V60.362H93.227Z" fill="#0023ff" data-fill-palette-color="accent"></path><path d="M49.955 16.243a8.2 8.2 0 1 0 8.2 8.2A8.2 8.2 0 0 0 49.955 16.243Zm6.178 4.007a7.426 7.426 0 0 1 1.278 3.826H54.4a10.375 10.375 0 0 0-0.606-3.146A17.876 17.876 0 0 0 56.133 20.25Zm-6.545 3.826H46.217a9.631 9.631 0 0 1 0.6-3.008 18.127 18.127 0 0 0 2.772 0.269Zm0 0.733v2.8a18.125 18.125 0 0 0-2.753 0.265 9.635 9.635 0 0 1-0.618-3.065Zm0.733 0h3.341a9.634 9.634 0 0 1-0.616 3.061 18.136 18.136 0 0 0-2.725-0.261Zm0-0.733V21.336a18.138 18.138 0 0 0 2.744-0.264 9.632 9.632 0 0 1 0.6 3Zm5.348-4.437a17.142 17.142 0 0 1-2.154 0.6 10.421 10.421 0 0 0-2.14-3.127A7.458 7.458 0 0 1 55.669 19.638Zm-2.9 0.74a17.443 17.443 0 0 1-2.45 0.225V17.138A9.7 9.7 0 0 1 52.771 20.378Zm-3.183-3.267V20.6a17.434 17.434 0 0 1-2.478-0.23A9.7 9.7 0 0 1 49.588 17.112Zm-1.091 0.007a10.421 10.421 0 0 0-2.131 3.115 17.142 17.142 0 0 1-2.126-0.6A7.459 7.459 0 0 1 48.5 17.119Zm-2.406 3.8a10.375 10.375 0 0 0-0.608 3.152H42.5a7.426 7.426 0 0 1 1.278-3.826A17.874 17.874 0 0 0 46.092 20.924Zm-2.281 7.759A7.426 7.426 0 0 1 42.5 24.808h2.985a10.37 10.37 0 0 0 0.625 3.209A17.879 17.879 0 0 0 43.811 28.682Zm0.47 0.61a17.133 17.133 0 0 1 2.1-0.585 10.424 10.424 0 0 0 2.1 3.056A7.458 7.458 0 0 1 44.281 29.292Zm2.851-0.725a17.446 17.446 0 0 1 2.456-0.226v3.443A9.7 9.7 0 0 1 47.132 28.567Zm3.189 3.191V28.341a17.458 17.458 0 0 1 2.428 0.222A9.7 9.7 0 0 1 50.321 31.757Zm1.067 0.012A10.423 10.423 0 0 0 53.5 28.7a17.136 17.136 0 0 1 2.132 0.591A7.457 7.457 0 0 1 51.388 31.769Zm2.385-3.758a10.371 10.371 0 0 0 0.622-3.2h3.015A7.426 7.426 0 0 1 56.1 28.682 17.88 17.88 0 0 0 53.773 28.011Z" fill="#0023ff" data-fill-palette-color="accent"></path></g></svg></g></svg></g><g></g></svg></g></svg></g></svg></g></svg></g><defs></defs></svg><rect width="320" height="360" fill="none" stroke="none" visibility="hidden"></rect></g></svg></g></svg>